<?xml version="1.0" encoding="iso-8859-1"?>
<svg xmlns="http://www.w3.org/2000/svg" xmlns:xlink="http://www.w3.org/1999/xlink" version="1.1" id="Capa_1" x="0px" y="0px" viewBox="0 0 612 612" style="enable-background:new 0 0 612 612;" xml:space="preserve" width="512px" height="512px">
<g>
	<g>
		<path d="M535.04,0H76.961C35.939,0,2.564,33.375,2.564,74.399v300.491c0,41.023,33.375,74.399,74.399,74.399h250.863v144.555    c0,7.58,4.71,14.361,11.811,17.011c2.07,0.772,4.215,1.144,6.339,1.144c5.167,0,10.209-2.207,13.727-6.268l135.52-156.442h39.815    c41.023,0,74.398-33.375,74.398-74.399V74.399C609.438,33.375,576.063,0,535.04,0z M573.128,374.891    c0,21.001-17.085,38.089-38.088,38.089c0,0-46.972,0.012-47.248,0c-5.366-0.251-10.792,1.891-14.583,6.268L364.138,545.161    V431.137c0-10.026-8.129-18.155-18.155-18.155H76.961c-21.002,0-38.089-17.088-38.089-38.089V74.399    C38.874,53.398,55.959,36.31,76.961,36.31h458.077c21.002,0,38.088,17.088,38.088,38.089v300.491H573.128z"/>
		<path d="M509.29,119.751H102.713c-10.026,0-18.155,8.129-18.155,18.155s8.129,18.155,18.155,18.155H509.29    c10.026,0,18.155-8.129,18.155-18.155S519.318,119.751,509.29,119.751z"/>
		<path d="M509.29,206.489H102.713c-10.026,0-18.155,8.129-18.155,18.155c0,10.026,8.129,18.155,18.155,18.155H509.29    c10.026,0,18.155-8.129,18.155-18.155C527.445,214.618,519.318,206.489,509.29,206.489z"/>
		<path d="M295.159,293.225H102.713c-10.026,0-18.155,8.129-18.155,18.155s8.129,18.155,18.155,18.155h192.448    c10.026,0,18.155-8.129,18.155-18.155C313.314,301.355,305.187,293.225,295.159,293.225z"/>
	</g>
</g>
</svg>